<?xml version="1.0" encoding="UTF-8"?>
<!-- Generator: visioncortex VTracer 0.6.12 -->
<svg version="1.1" xmlns="http://www.w3.org/2000/svg" width="512" height="512">
<path d="M0 0 C0.8146069335937227 0.448271484375 1.6292138671875023 0.89654296875 2.468505859375 1.3583984375 C3.2874633789062386 1.7841113281249998 4.106420898437477 2.20982421875 4.9501953125 2.6484375 C5.818620605468709 3.135380859375 6.687045898437532 3.62232421875 7.581787109375 4.1240234375 C8.569772949218759 4.67695068359375 9.557758789062518 5.2298779296875 10.57568359375 5.799560546875 C11.633439941406209 6.39647705078125 12.691196289062532 6.993393554687501 13.781005859375 7.6083984375 C14.889680175781223 8.23174072265625 15.998354492187502 8.8550830078125 17.140625 9.497314453125 C26.607914629094807 14.837131486500772 36.00150550973285 20.299628685101702 45.378662109375 25.7958984375 C51.68421005094194 29.490531540206327 58.01145022197022 33.146925251674524 64.343505859375 36.7958984375 C65.42365966796876 37.41843505859375 66.50381347656253 38.0409716796875 67.61669921875 38.682373046875 C69.80646919831923 39.94416670000824 71.99632940862023 41.205803775712404 74.186279296875 42.46728515625 C80.6972184264859 46.218678677372125 87.20513779818089 49.975308381123334 93.713623046875 53.73095703125 C99.1543592217833 56.87022089638131 104.59582062832482 60.00821340464528 110.038818359375 63.1435546875 C120.4905678538492 69.16587172394244 130.93150133933074 75.20509180996541 141.343505859375 81.2958984375 C149.43080158953296 86.02588732923917 157.5469913124969 90.70288141633783 165.68637084960938 95.34246826171875 C175.48238103555684 100.92681641470934 185.27194927605188 106.52216879006222 195.031005859375 112.1708984375 C196.04227539062498 112.75162109375 197.05354492187502 113.33234375 198.095458984375 113.9306640625 C199.024228515625 114.47013671875 199.952998046875 115.009609375 200.909912109375 115.5654296875 C201.72145751953127 116.03440673828125 202.53300292968748 116.5033837890625 203.369140625 116.986572265625 C205.35143339649983 118.28189766195683 206.87333286708156 119.61835540451607 208.468505859375 121.3583984375 C192.92617226726333 130.4477178779918 177.3524173274315 139.480214210504 161.750732421875 148.46728515625 C156.32190643607123 151.59519992016223 150.89531304812488 154.7269829158436 145.468505859375 157.8583984375 C143.30185003301574 159.1084172271779 141.1351833630378 160.3584172218147 138.968505859375 161.6083984375 C137.896005859375 162.2271484375 136.82350585937502 162.8458984375 135.718505859375 163.4833984375 C106.468505859375 180.3583984375 77.218505859375 197.2333984375 47.968505859375 214.1083984375 C46.894313964843775 214.72819580078124 45.82012207031249 215.3479931640625 44.71337890625 215.986572265625 C42.56405170820119 217.22642567224904 40.41447805119117 218.465851939999 38.2646484375 219.704833984375 C33.190160972475894 222.63003606352942 28.118289688369714 225.55951566333 23.055145263671875 228.50430297851563 C20.665349181330157 229.89388473705847 18.274137498802872 231.2810201590473 15.8828125 232.66796875 C14.197099971618513 233.64703096781298 12.513439992159192 234.62962449270404 10.829833984375 235.6123046875 C9.806962890624959 236.2052734375 8.784091796875032 236.7982421875 7.730224609375 237.4091796875 C6.832634277343743 237.93165283203126 5.935043945312486 238.4541259765625 5.01025390625 238.992431640625 C0.05820599999196929 241.65372335472676 0.05820599999196929 241.65372335472676 -2.531494140625 242.3583984375 C-4.857910156249972 241.55419921875 -4.857910156249972 241.55419921875 -7.285400390625 240.0537109375 C-8.207724609374992 239.498125 -9.130048828125013 238.9425390625 -10.080322265625 238.3701171875 C-11.074833984375005 237.7475 -12.069345703125009 237.1248828125 -13.093994140625 236.4833984375 C-15.260931050460329 235.17179635456714 -17.428943816382883 233.86197045847143 -19.597900390625 232.5537109375 C-20.1615933227539 232.21043762207032 -20.725286254882803 231.86716430664063 -21.306060791015625 231.51348876953125 C-27.05968589421593 228.0125708609982 -32.90493145880083 224.68056475649513 -38.764190673828125 221.36050415039063 C-41.72898856119144 219.67938884885294 -44.68909573338894 217.99007460083504 -47.648681640625 216.2998046875 C-48.22942947387696 215.9681480407715 -48.810177307128896 215.63649139404296 -49.40852355957031 215.29478454589844 C-56.16402006671959 211.43188449542023 -62.88139126152001 207.50425530013993 -69.598388671875 203.574951171875 C-80.1223403878584 197.42073102201653 -90.68529551524995 191.33469847727275 -101.249267578125 185.24951171875 C-106.67809356392871 182.1215969548378 -112.10468695187518 178.98981395915638 -117.531494140625 175.8583984375 C-119.69814996698429 174.6083796478221 -121.86481663696222 173.3583796531853 -124.031494140625 172.1083984375 C-130.531494140625 168.3583984375 -130.531494140625 168.3583984375 -163.031494140625 149.6083984375 C-163.56867065429688 149.29854003906252 -163.56867065429688 149.29854003906252 -166.287109375 147.73046875 C-168.4354170077364 146.4908553157444 -170.58337131982412 145.25062934166667 -172.73095703125 144.009765625 C-177.81293559295938 141.07442160897503 -182.89834077343465 138.14554571463614 -187.99642944335938 135.23828125 C-190.40802496902887 133.862530530839 -192.8176128971829 132.4832849700206 -195.22705078125 131.103759765625 C-196.93139964016163 130.12988025647536 -198.638643525513 129.16107278881572 -200.345947265625 128.1923828125 C-201.37526367187502 127.60263671875 -202.404580078125 127.012890625 -203.465087890625 126.4052734375 C-204.37315185546873 125.888037109375 -205.2812158203125 125.37080078125 -206.216796875 124.837890625 C-208.30500210193762 123.5031660521446 -209.87727618421482 122.18906175876762 -211.531494140625 120.3583984375 C-198.3867963615746 112.57776256549941 -185.1634035594139 104.93646387275236 -171.926513671875 97.31396484375 C-166.4597943437773 94.16507790156227 -160.99574527014 91.01156580004607 -155.531494140625 87.8583984375 C-153.36484103148126 86.60837493808798 -151.19817434640998 85.35837496940132 -149.031494140625 84.1083984375 C-147.958994140625 83.4896484375 -146.88649414062502 82.8708984375 -145.781494140625 82.2333984375 C-84.03149414205791 46.60839843832667 -84.03149414205791 46.60839843832667 -80.781005859375 44.733154296875 C-78.61592343401506 43.484043256729315 -76.45088431845224 42.23485714474482 -74.285888671875 40.985595703125 C-68.84533708231095 37.846375343166734 -63.404021983243325 34.70849280956958 -57.961181640625 31.5732421875 C-45.29917570030045 24.277577697430438 -32.65683958261121 16.949478868185942 -20.039306640625 9.5771484375 C-19.146308593750007 9.0615234375 -18.253310546875014 8.5458984375 -17.333251953125 8.0146484375 C-15.315761257801853 6.822015387911971 -13.322838100447939 5.5874678752282225 -11.346923828125 4.3271484375 C-10.29150390625 3.6671484375 -9.236083984375 3.0071484374999997 -8.148681640625 2.3271484375 C-7.671003417968734 2.020029296875 -7.671003417968734 2.020029296875 -5.253662109375 0.4658203125 C-2.531494140625 -0.6416015625000029 -2.531494140625 -0.6416015625000029 0 0 Z M-7.351806640625 36.9287109375 C-7.850633544921891 37.208397216796875 -7.850633544921891 37.208397216796875 -10.375 38.623779296875 C-10.916446533203128 38.93061645507812 -10.916446533203128 38.93061645507812 -13.656494140625 40.4833984375 C-14.778703613281237 41.115764160156246 -15.900913085937503 41.7481298828125 -17.05712890625 42.399658203125 C-26.573058844763693 47.771695945927874 -36.014395786629905 53.27007925251915 -45.441650390625 58.7958984375 C-51.747198332192 62.49053154020637 -58.074438503220165 66.14692525167449 -64.406494140625 69.7958984375 C-65.48664794921876 70.41843505859376 -66.5668017578125 71.0409716796875 -67.6796875 71.682373046875 C-69.86945747956923 72.94416670000824 -72.05931768987026 74.20580377571241 -74.249267578125 75.46728515625 C-80.7587900267281 79.21786243138237 -87.26544193813083 82.97341833178146 -93.772216796875 86.728759765625 C-99.23684076700897 89.88225005457707 -104.70297316013773 93.03306884243995 -110.172119140625 96.1787109375 C-124.01488704539744 104.14487051665513 -137.80299554617346 112.19680393733458 -151.531494140625 120.3583984375 C-149.03764621961017 123.15403619140639 -146.27934333497137 124.79093247951414 -143.027587890625 126.6240234375 C-141.9078759765625 127.25896728515625 -140.78816406250002 127.89391113281249 -139.634521484375 128.548095703125 C-139.33629486083984 128.71571914672853 -139.33629486083984 128.71571914672853 -137.82708740234375 129.56399536132813 C-135.2930786076155 130.988319228588 -132.76515653538152 132.42329730029925 -130.2366943359375 133.85743713378906 C-128.92899828061363 134.59893188408302 -127.62097052931057 135.3398419432693 -126.3126220703125 136.08018493652344 C-119.99019849189739 139.658526980621 -113.69574762487082 143.28459974328842 -107.406494140625 146.9208984375 C-105.25805967548928 148.1617891086388 -103.10962217226793 149.40267451975774 -100.961181640625 150.6435546875 C-99.90125 151.25602050781248 -98.84131835937501 151.86848632812502 -97.749267578125 152.49951171875 C-92.34478768669044 155.62164448759543 -86.93802001883319 158.73981047969482 -81.531494140625 161.8583984375 C-79.36481663696222 163.1083796531853 -77.19814996698429 164.3583796478221 -75.031494140625 165.6083984375 C-74.495244140625 165.9177734375 -74.495244140625 165.9177734375 -71.781494140625 167.4833984375 C-62.031494137245204 173.1083984394499 -62.031494137245204 173.1083984394499 -58.778564453125 174.985107421875 C-56.62168510788305 176.22944841556233 -54.46478422373909 177.47375207555817 -52.307861328125 178.718017578125 C-45.593420069660965 182.59146036942673 -38.8794185147859 186.46566127242622 -32.167236328125 190.343017578125 C-29.940302859783515 191.62750278242726 -27.711827245585425 192.90931868782937 -25.481689453125 194.188232421875 C-20.952424810088615 196.78749993543263 -16.43659146729027 199.39197829721752 -12.000244140625 202.1474609375 C-11.355390625000013 202.54070556640625 -10.710537109374997 202.9339501953125 -10.046142578125 203.339111328125 C-8.44351751146823 204.32157282098004 -6.8538957217188 205.3251673841906 -5.265869140625 206.3310546875 C-1.5989733776061428 207.70875980989138 -0.12857825327819228 206.77780338750838 3.468505859375 205.3583984375 C5.281728422860624 204.42561246446746 7.068224462769422 203.43945882545475 8.827880859375 202.4091796875 C9.847529296874995 201.8162109375 10.867177734374991 201.2232421875 11.917724609375 200.6123046875 C13.006982421875023 199.971640625 14.096240234374989 199.3309765625 15.218505859375 198.6708984375 C16.375715580259794 197.99583204536782 17.53327443024409 197.32136381953387 18.691162109375 196.6474609375 C21.09421168238589 195.24824038713206 23.495745055825864 193.84646908321133 25.896240234375 192.44287109375 C31.406374305006636 189.2239045961895 36.93860944359835 186.04324814778965 42.468505859375 182.8583984375 C44.63266050232414 181.60986022326884 46.79672270181999 180.36116175867943 48.960693359375 179.1123046875 C53.31915974052049 176.5977040807646 57.678627769387504 174.08485182494604 62.038818359375 171.5732421875 C73.46975567554432 164.98671535024008 84.88250249037236 158.3711325320721 96.26953125 151.708984375 C104.75837082225416 146.75209968357763 113.29512924716522 141.88159014603423 121.83721923828125 137.01736450195313 C130.78886622331362 131.91759276928298 139.68205665094797 126.73785713653696 148.468505859375 121.3583984375 C145.96015465624237 118.54055806747671 143.16927648320222 116.90116120986693 139.894287109375 115.0576171875 C138.76442382812502 114.41759765625 137.63456054687498 113.777578125 136.470458984375 113.1181640625 C135.86983642578127 112.78083251953124 135.2692138671875 112.4435009765625 134.650390625 112.095947265625 C131.455335242684 110.30125832748458 128.26930449327665 108.49064868691596 125.081787109375 106.6826171875 C124.4348489379883 106.31627166748046 123.78791076660156 105.94992614746094 123.12136840820313 105.57247924804688 C117.2064735118023 102.21980889648131 111.33308074486246 98.79827855328512 105.468505859375 95.3583984375 C96.83394250760387 90.30139335067126 88.16243540407243 85.31232307715877 79.468505859375 80.3583984375 C69.75467981261374 74.82276698950858 60.074631232136596 69.23270629556583 50.423583984375 63.588134765625 C38.80179960561327 56.792952543499226 27.14398960262446 50.06084604212008 15.468505859375 43.3583984375 C14.589365234375009 42.852763671874996 13.710224609375018 42.34712890625 12.804443359375 41.826171875 C10.528622106048203 40.519380861681 8.24948076592716 39.21866706747206 5.968505859375 37.9208984375 C5.322041015625018 37.54924560546875 4.675576171875036 37.1775927734375 4.009521484375 36.794677734375 C-1.0606958763278271 33.92826045567578 -2.348703301380624 34.11395241585841 -7.351806640625 36.9287109375 Z " fill="#000000" transform="translate(257.531494140625,0.6416015625)"/>
<path d="M0 0 C25.30853453899624 13.804655203088842 50.34167544380392 28.062745701535064 75 43 C72.50615207898517 45.79563775390636 69.74784919434637 47.43253404201414 66.49609375 49.265625 C65.37565673828124 49.9009716796875 64.25521972656247 50.536318359375 63.100830078125 51.19091796875 C62.50428619384763 51.526215209960924 61.907742309570324 51.861512451171876 61.293121337890625 52.20697021484375 C59.41257152689303 53.264012093641156 57.53532649837274 54.32670822978193 55.658935546875 55.39111328125 C53.713694383208065 56.49455282291211 51.76829139246189 57.59769166640942 49.82191467285156 58.699127197265625 C43.29927872084954 62.39074196155116 36.8030766460771 66.12728081076824 30.3125 69.875 C29.244511718750005 70.49093017578124 28.17652343750001 71.10686035156249 27.076171875 71.741455078125 C19.959604936313326 75.85137187860957 12.864767276331804 79.99684272147385 5.807861328125 84.20849609375 C1.1061591295317044 87 1.1061591295317044 87 0 87 C0 58.28999999999999 0 29.58 0 0 Z " fill="#000000" transform="translate(271,78)"/>
<path d="M0 0 C0 28.710000000000008 0 57.420000000000016 0 87 C-17.040096888010595 77.70540169744876 -34.01280346096425 68.30103289699355 -50.6923828125 58.37158203125 C-54.45983307768512 56.13231673397854 -58.235055963593936 53.90621989378943 -62.009033203125 51.677978515625 C-66.34040895548458 49.1204339460899 -70.67024034375959 46.56027925535744 -75 44 C-72.49164879686731 41.18215962997664 -69.70077062382725 39.54276277236694 -66.42578125 37.69921875 C-65.29519287109375 37.05879638671874 -64.1646044921875 36.41837402343751 -62.999755859375 35.758544921875 C-62.39904266357422 35.42116302490234 -61.79832946777344 35.08378112792968 -61.179412841796875 34.736175537109375 C-57.996877746006106 32.9484934202862 -54.82341992395976 31.144799953736765 -51.6484375 29.34375 C-51.00335739135741 28.978436737060548 -50.35827728271485 28.613123474121096 -49.69364929199219 28.236740112304688 C-43.57873381569138 24.770738307073003 -37.50339656462623 21.238547915048258 -31.4375 17.6875 C-30.468447265625002 17.121037597656255 -29.499394531250005 16.554575195312495 -28.5009765625 15.970947265625 C-26.60044394031027 14.859943391918591 -24.700049958249394 13.748702315267195 -22.7998046875 12.63720703125 C-18.22370154116672 9.961296000615988 -13.645029678129163 7.2898904144398955 -9.0625 4.625 C-8.256755371093732 4.154089355468756 -7.4510107421875205 3.683178710937497 -6.620849609375 3.197998046875 C-1.1145038564841343 0 -1.1145038564841343 0 0 0 Z " fill="#000000" transform="translate(241,78)"/>
<path d="M0 0 C2.2154627376434988 1.0977386118105699 4.429796462484639 2.1976614664604597 6.6435546875 3.298828125 C7.263503112792968 3.6057257080078102 7.883451538085936 3.9126232910156205 8.522186279296875 4.22882080078125 C14.24378570161089 7.078580394816612 19.75627192977501 10.23365255271952 25.25 13.5 C27.340780232336442 14.731089867176678 29.431939418017265 15.961536332465442 31.5234375 17.19140625 C32.589169921875 17.819340820312505 33.654902343749995 18.44727539062501 34.7529296875 19.09423828125 C40.10985526033292 22.238310538508188 45.492214360490195 25.33797616175346 50.875 28.4375 C51.954267578125 29.059472656249994 53.03353515625 29.68144531249999 54.1455078125 30.322265625 C56.33614965547187 31.58466939891599 58.52690500441214 32.84687622692525 60.7177734375 34.10888671875 C66.14659942330358 37.236801482662116 71.57319281125022 40.36858447834365 77 43.5 C79.16665582635929 44.75001878967791 81.33332249633722 46.000018784314705 83.5 47.25 C87.83333333333333 49.75 92.16666666666667 52.25 96.5 54.75 C97.5726611328125 55.368830566406245 98.645322265625 55.98766113281249 99.75048828125 56.625244140625 C101.91557070660997 57.87435518077069 104.08060982217279 59.12354129275519 106.24560546875 60.372802734375 C111.68615705831408 63.51202309433327 117.12747215738165 66.64990562793042 122.5703125 69.78515625 C134.00124981616926 76.3716830872599 145.41399663099736 82.98726590542793 156.801025390625 89.6494140625 C164.69156662283785 94.25693464385631 172.6228360672871 98.790454694895 180.5625 103.3125 C207.867889867755 118.86788986775503 207.867889867755 118.86788986775503 210 121 C210.09805941598535 124.12239192573713 210.12990476069123 127.22268141304113 210.12025451660156 130.34547424316406 C210.12068172901868 130.84205306738613 210.12068172901868 130.84205306738613 210.12284368276596 133.35504287481308 C210.12450149099482 136.7101018051237 210.1189722133117 140.06511162970844 210.113525390625 143.420166015625 C210.1132435576679 145.81437173274736 210.11340117589017 148.20857753648727 210.1139678955078 150.602783203125 C210.11419621315295 155.77130680835864 210.1113448936797 160.9398191408344 210.1057300567627 166.10833930969238 C210.09761712320568 173.58123287565536 210.09500004974439 181.05412033148173 210.09374206513166 188.5270178243518 C210.0915512197587 200.65009541429674 210.08489025324067 212.77316629133384 210.075439453125 224.896240234375 C210.06626617694488 236.6755367666475 210.05918493125887 248.4548314782905 210.054931640625 260.234130859375 C210.0546689171344 260.95970806129276 210.0544061936438 261.6852852632105 210.05413550883532 262.4328496530652 C210.0528305101343 266.0727083220232 210.0515667928519 269.71256700391996 210.05032360553741 273.35242569446564 C210.03994997826248 303.5682886031415 210.02225665829752 333.78414337181664 210 364 C208.23481607600345 363.0377639411898 206.46970314713963 362.0753976438245 204.70462036132813 361.11297607421875 C203.72166551589964 360.5770722579956 202.7387106704712 360.04116844177247 201.7259693145752 359.4890251159668 C188.90343669112835 352.48488423128066 176.14978912937764 345.3427853611912 163.583251953125 337.888427734375 C157.27164829963652 334.14652160643533 150.92007734375773 330.475673289601 144.5625 326.8125 C143.45527587890626 326.17449462890625 142.3480517578125 325.5364892578125 141.207275390625 324.879150390625 C138.9366293248563 323.57110523458675 136.6658764223108 322.2632455207684 134.39501953125 320.95556640625 C128.9283002517894 317.80667949207776 123.46422353986745 314.65321509587636 118 311.5 C111.47767560688152 307.73634634567964 104.9548623653667 303.9735537741695 98.4296875 300.21484375 C87.97793800552577 294.1925267135575 77.53700452004423 288.15330662753456 67.125 282.0625 C58.44737586908548 276.9872477629816 49.73388299625417 271.97752213295774 41 267 C31.788115470413388 261.7496478337637 22.597273038310732 256.46587801016534 13.4375 251.125 C12.42623046875 250.5358984375 11.414960937499998 249.94679687500002 10.373046875 249.33984375 C6.8626710036453105 247.28867339352485 3.3836562005697814 245.25577080037988 0 243 C-0.37259548902511597 241.19347989559174 -0.37259548902511597 241.19347989559174 -0.3691434860229492 238.95888328552246 C-0.37511663138866425 238.10843606352807 -0.3810897767543793 237.2579888415337 -0.38724392652511597 236.38177049160004 C-0.3785054022073737 235.44209573864936 -0.3697668778896315 234.50242098569868 -0.3607635498046875 233.53427124023438 C-0.36332682430744256 232.54025916695593 -0.36589009881019763 231.5462470936775 -0.3685310482978821 230.52211344242096 C-0.3734976277170752 227.1700167846226 -0.3569285822555557 223.8183641949817 -0.340576171875 220.46630859375 C-0.33973052140304816 218.07195547140134 -0.3402038256475528 215.67760156964698 -0.3419036865234375 213.2832489013672 C-0.34258825052208763 208.11743195051878 -0.3340440794435402 202.95171661147901 -0.31719017028808594 197.78593063354492 C-0.29283792747753523 190.31702725802404 -0.2849987850824327 182.84817888555216 -0.28122619539499283 175.37924011051655 C-0.27465576448248186 163.26223572835534 -0.25467859673857873 151.14529183737932 -0.226318359375 139.0283203125 C-0.19879307229534504 127.25586246045617 -0.17755201688343902 115.48342102204447 -0.164794921875 103.7109375 C-0.16400675140321397 102.98562302157285 -0.16321858093142438 102.26030854314564 -0.1624065265059471 101.51301483809948 C-0.15849149352688485 97.87442689571827 -0.1547003505052551 94.23583883680425 -0.15097081661224365 90.59725069999695 C-0.11985649000520837 60.39812382053276 -0.06678207193866825 30.199070293503127 0 0 Z M30 52 C30 109.42000000000002 30 166.84000000000003 30 226 C34.620000000000005 228.64 34.620000000000005 228.64 58 242 C65.59616930394986 246.37684040846636 73.19148019061583 250.75491277052765 80.7822265625 255.14111328125 C86.18670645393453 258.2632460500954 91.59347412179187 261.3814120421949 97 264.5 C99.16667750366278 265.7499812156853 101.33334417364071 266.99998121032206 103.5 268.25 C104.03625 268.559375 104.03625 268.559375 106.75 270.125 C109.99999999999991 271.99999999999994 113.25 273.875 116.5 275.75 C117.57322509765623 276.36915283203126 118.6464501953125 276.9883056640625 119.752197265625 277.626220703125 C121.91159394618899 278.8720576965346 124.07093669060532 280.1179881817528 126.230224609375 281.364013671875 C131.7576759679891 284.5534895294193 137.2861512114282 287.7411688508795 142.81640625 290.92578125 C145.06516610349712 292.22124665830734 147.31386489777506 293.5168180637737 149.5625 294.8125 C150.10128784179688 295.1228820800781 150.10128784179688 295.1228820800781 152.827880859375 296.693603515625 C159.97734579839425 300.8177657351239 167.10422919516589 304.9782293270082 174.191650390625 309.208251953125 C178.89395395091685 312 178.89395395091685 312 180 312 C180.3975011559344 289.4866642923722 180.69708171750088 266.97390864329657 180.8808069229126 244.45777320861816 C180.9683914143879 234.00239240206554 181.0877378799995 223.54919427538914 181.282470703125 213.09521484375 C181.45216561683768 203.98100138277505 181.56164430930787 194.86836843947492 181.59950441122055 185.75261914730072 C181.621632655602 180.92688540380595 181.67342524568136 176.10567191612574 181.79741096496582 171.28139114379883 C182.52341519219252 141.91967473676584 182.52341519219252 141.91967473676584 178.3539524078369 135.44315910339355 C174.46682984436202 131.71778813635126 170.2419863230468 129.94335441726048 165.08624649047852 128.60957527160645 C161.88253478294004 127.67349056484511 159.3835390381077 126.04481874915945 156.56640625 124.26953125 C154.5655337895756 123.11644168538083 152.56422606007942 121.96410710631591 150.5625 120.8125 C148.31379049430603 119.51694719836564 146.0650929213519 118.22137368472073 143.81640625 116.92578125 C142.6873486328125 116.27561035156248 141.558291015625 115.62543945312501 140.39501953125 114.95556640625 C134.92830020315233 111.80667946406231 129.46425112951493 108.65316736254601 124 105.5 C121.83334689085626 104.24997650058799 119.66668020578498 102.99997653190132 117.5 101.75 C78.50000000008988 79.25000000005187 78.50000000008988 79.25000000005187 75.244384765625 77.37158203125 C73.0966417980638 76.13261765550132 70.94869545480151 74.89400575853267 68.800537109375 73.65576171875 C63.708205626646276 70.71985895074383 58.61808304522192 67.7803024461086 53.535064697265625 64.82830810546875 C51.12565992363075 63.429319466441314 48.715099102400075 62.03232971277282 46.304443359375 60.635498046875 C44.59701017505597 59.645019287253916 42.89126028223333 58.65164060393809 41.185546875 57.658203125 C40.156230468749996 57.06201171875 39.12691406249999 56.4658203125 38.06640625 55.8515625 C37.15834228515625 55.3238525390625 36.2502783203125 54.796142578125 35.314697265625 54.25244140625 C33 53 33 53 30 52 Z " fill="#000000" transform="translate(31,148)"/>
<path d="M0 0 C0.3880766108912894 30.786112164286124 0.6887945601887395 61.57166344001794 0.8681106008589268 92.35963838547468 C0.889371820497729 95.99692440672322 0.9113753756846563 99.63420558370092 0.933837890625 103.271484375 C0.9360675292834912 103.63353251762689 0.9360675292834912 103.63353251762689 0.9473508521914482 105.46571554243565 C1.0212630804938954 117.18029436931965 1.1552619007610474 128.89345051738184 1.3115975335240364 140.6071861833334 C1.4707523731736387 152.63273757757509 1.5650348960992915 164.65754564393848 1.5995044112205505 176.68410694599152 C1.6207110197279917 183.43744445073526 1.6715612766072354 190.18781995320512 1.7974109649658203 196.94009017944336 C1.9129866821346013 203.2990480464648 1.9483683159499492 209.6534640016652 1.922830581665039 216.01337242126465 C1.9275002732226767 218.34440643734843 1.9612305007873374 220.67559520908975 2.0264930725097656 223.0057201385498 C2.483255817905672 240.1581056513296 2.483255817905672 240.1581056513296 -1.6573841571807861 244.8967480659485 C-5.696808551154845 248.14981641724512 -10.117352744481082 250.24531759735714 -14.918100476264954 252.1391031742096 C-17.948789007063056 253.39233855198734 -20.63373438181725 255.0264811462872 -23.43359375 256.73046875 C-25.434466210424375 257.88355831461917 -27.43577393992058 259.0358928936841 -29.4375 260.1875 C-31.686209505693967 261.4830528016344 -33.93490707864811 262.77862631527927 -36.18359375 264.07421875 C-37.31265136718753 264.7243896484375 -38.441708984375 265.374560546875 -39.60498046875 266.04443359375 C-45.071699796847724 269.19332053593774 -50.53574887048501 272.34683263745393 -56 275.5 C-58.16665310914374 276.750023499412 -60.33331979421507 278.0000234680987 -62.5 279.25 C-63.57249999999999 279.86875 -64.64499999999998 280.4875 -65.75 281.125 C-127.4999999932657 316.7499999961149 -127.4999999932657 316.7499999961149 -130.75048828125 318.625244140625 C-132.91557070660997 319.8743551807707 -135.0806098221728 321.1235412927552 -137.24560546875 322.372802734375 C-142.68615705831405 325.5120230943333 -148.12747215738165 328.6499056279304 -153.5703125 331.78515625 C-166.23231844032455 339.08082074006956 -178.8746545580138 346.40891956931404 -191.4921875 353.78125 C-191.9361083984375 354.0403515625 -191.9361083984375 354.0403515625 -194.1826171875 355.3515625 C-196.2323815767375 356.5508700525244 -198.2795675057382 357.7545878271725 -200.3251953125 358.9609375 C-200.87095214843748 359.2819140625 -200.87095214843748 359.2819140625 -203.6328125 360.90625 C-204.6345751953125 361.49728515625 -205.636337890625 362.0883203125 -206.66845703125 362.697265625 C-209 364 -209 364 -210 364 C-210.2052998694104 333.14548800004377 -210.36457937985148 302.2911321393891 -210.4595879651606 271.43610029667616 C-210.47084436710549 267.793662093742 -210.4824932635292 264.15122524471275 -210.494384765625 260.5087890625 C-210.49674555949866 259.7836435355246 -210.49910635337233 259.05849800854924 -210.5015386864543 258.3113783746958 C-210.54070415262345 246.5687759223183 -210.61166666988936 234.82656988766462 -210.69437516480684 223.084202632308 C-210.77853021136076 211.03600618141388 -210.8285269508811 198.98801737822737 -210.84679645299911 186.93953907489777 C-210.85803936861663 180.1716479404352 -210.88508457281483 173.40458351848702 -210.95157051086426 166.63698959350586 C-211.01258309385236 160.2690565552682 -211.0315195321067 153.90239441418737 -211.01796913146973 147.5341968536377 C-211.02044858294255 145.19521366587315 -211.03839793410697 142.85618873010804 -211.07284927368164 140.51745796203613 C-211.1175673712928 137.3256533131448 -211.10689914981168 134.13866025950597 -211.08229064941406 130.94674682617188 C-211.09539843589067 130.48273513257504 -211.09539843589067 130.48273513257504 -211.16173177957535 128.13455474376678 C-211.10610040633293 125.46959332366976 -210.96126616135382 123.48965418295751 -210 121 C-207.28170931481588 118.40378651606113 -204.33185877892998 116.70264744507438 -201 115 C-200.03118896484375 114.42443359375 -199.0623779296875 113.84886718749999 -198.064208984375 113.255859375 C-197.21673095703125 112.78986328125 -196.3692529296875 112.32386718750001 -195.49609375 111.84375 C-195.0085461425781 111.5737316894531 -195.0085461425781 111.5737316894531 -192.541259765625 110.207275390625 C-191.51701904296874 109.64387451171876 -190.49277832031248 109.08047363281253 -189.4375 108.5 C-180.9256408208435 103.77594016303448 -172.46123887771137 98.98498360763179 -164.0625 94.0625 C-155.76612704111545 89.20075323856156 -147.45656863254362 84.36373237648564 -139.125 79.5625 C-138.04484619140624 78.93996337890627 -136.96469238281247 78.31742675781248 -135.851806640625 77.676025390625 C-133.66203666105577 76.41423173749178 -131.47217645075477 75.15259466178759 -129.2822265625 73.89111328125 C-123.8534005766964 70.76319851733786 -118.42680718874976 67.63141552165638 -113 64.5 C-110.83334417364074 63.24998121032209 -108.66667750366275 61.999981215685295 -106.5 60.75 C-105.42750000000001 60.131249999999994 -104.35500000000002 59.51249999999999 -103.25 58.875 C-93.50000000107536 53.25000000062042 -93.50000000107536 53.25000000062042 -90.24951171875 51.374755859375 C-88.08442929339003 50.12564481922931 -85.91939017782721 48.87645870724481 -83.75439453125 47.627197265625 C-78.31384294168595 44.487976905666756 -72.8725278426183 41.35009437206958 -67.4296875 38.21484375 C-56.87267914433903 32.13178292109649 -46.328258537288434 26.029123301474982 -35.8125 19.875 C-27.593594659716018 15.069754320145137 -19.345083830184194 10.319691794220972 -11.0625 5.625 C-10.066457519531241 5.05894042968751 -9.070415039062482 4.492880859374992 -8.044189453125 3.90966796875 C-7.133708496093732 3.3954931640624864 -6.223227539062464 2.881318359375001 -5.28515625 2.3515625 C-4.479572753906268 1.8960400390625125 -3.6739892578125364 1.4405175781249966 -2.843994140625 0.97119140625 C-1 0 -1 0 0 0 Z M-39 56.0625 C-40.552707701621216 56.98811697026329 -42.10614035945832 57.91251852994512 -43.66015625 58.8359375 C-44.08691650390625 59.0897216796875 -44.08691650390625 59.0897216796875 -46.24658203125 60.3740234375 C-51.28760271259512 63.3508985694169 -56.36386744835596 66.2666737290483 -61.4375 69.1875 C-62.54287109375002 69.82437744140626 -63.64824218749999 70.46125488281251 -64.787109375 71.117431640625 C-67.05960057445316 72.42666230218461 -69.33222524450036 73.73566131890382 -71.60498046875 75.04443359375 C-77.07169979684767 78.19332053593769 -82.53574887048501 81.34683263745396 -88 84.5 C-90.16665310914374 85.75002349941201 -92.33331979421502 87.00002346809868 -94.5 88.25 C-95.57249999999999 88.86875 -96.64499999999998 89.48750000000001 -97.75 90.125 C-107.50000000053888 95.75000000031088 -107.50000000053888 95.75000000031088 -110.75048828125 97.625244140625 C-112.91557070660997 98.87435518077069 -115.08060982217279 100.12354129275519 -117.24560546875 101.372802734375 C-122.68615705831405 104.51202309433324 -128.1274721573817 107.64990562793042 -133.5703125 110.78515625 C-144.53917031429756 117.10510203218126 -155.499003847947 123.44011886801991 -166.4375 129.8125 C-167.4566650390625 130.40554931640622 -168.475830078125 130.9985986328125 -169.52587890625 131.609619140625 C-170.46479980468752 132.15739013671873 -171.40372070312503 132.70516113281252 -172.37109375 133.26953125 C-173.19536865234375 133.75010986328124 -174.0196435546875 134.23068847656248 -174.868896484375 134.725830078125 C-176.61029284622498 135.76699717773494 -178.31184187841006 136.8745612522734 -180 138 C-180.36914348602295 140.9635181427002 -180.36914348602295 140.9635181427002 -180.3607635498047 144.84622192382813 C-180.36332682430742 145.55846888422968 -180.3658900988102 146.27071584463118 -180.36853104829788 147.00454604625702 C-180.3734922639207 149.4031597138213 -180.35693823027634 151.8011508770291 -180.340576171875 154.19970703125 C-180.3397304011521 155.914265799019 -180.34020406197163 157.62882565509966 -180.34190368652344 159.3433837890625 C-180.34276702152476 164.00850030279048 -180.32508670769255 168.673387010949 -180.30418181419373 173.33844995498657 C-180.28547121389414 178.20982362819336 -180.28366901812547 183.08120213985188 -180.2801055908203 187.95260620117188 C-180.27076856901988 197.18199167468816 -180.2461324255326 206.41127097441864 -180.2160571217537 215.64060962200165 C-180.1825645908625 226.14588253079273 -180.1660400715308 236.65116041977387 -180.15097081661224 247.15647339820862 C-180.1195842748416 268.7710416034903 -180.06679165786954 290.38551412296755 -180 312 C-178.23481607600343 311.0377639411898 -176.46970314713963 310.0753976438245 -174.70462036132813 309.11297607421875 C-174.21314293861388 308.8450241661072 -174.21314293861388 308.8450241661072 -171.7259693145752 307.4890251159668 C-158.90343669112832 300.48488423128066 -146.14978912937767 293.3427853611912 -133.583251953125 285.888427734375 C-127.27164829963647 282.1465216064353 -120.92007734375778 278.475673289601 -114.5625 274.8125 C-113.45527587890626 274.17449462890625 -112.34805175781253 273.5364892578125 -111.207275390625 272.879150390625 C-108.93662932485631 271.57110523458675 -106.66587642231082 270.26324552076835 -104.39501953125 268.95556640625 C-98.92830021553766 265.8066794711964 -93.46424407738544 262.6531795640145 -88 259.5 C-81.41827956941017 255.7025859237707 -74.83635927367573 251.9055190731142 -68.25390625 248.109375 C-67.13306640625001 247.46291015625002 -66.01222656250002 246.81644531250004 -64.857421875 246.150390625 C-62.768952692046696 244.94583785972816 -60.6804189331973 243.74139704432218 -58.591796875 242.537109375 C-56.61980165088346 241.3996698093428 -54.66898787299459 240.22467685625486 -52.741668701171875 239.01307678222656 C-49.97727772140331 237.38730673486702 -47.34227632666341 236.4683178650621 -44.261627197265625 235.59580993652344 C-38.35218182347501 233.60338225578147 -33.63018949697539 231.21960454439318 -30 226 C-26.55385232889995 214.4562924027507 -27.731071875947237 201.65286562909125 -28.07351517677307 189.74900460243225 C-28.19279257531747 184.9021923420999 -28.20348833427738 180.055130413779 -28.225997924804688 175.2070770263672 C-28.284913836987926 166.03971062002034 -28.440612142861028 156.8766806327793 -28.63163822889328 147.71121901273727 C-28.844466867430583 137.27163255883653 -28.948585209622024 126.83183201275449 -29.043851494789124 116.39061415195465 C-29.24212992685318 94.92466109710642 -29.576028229668736 73.46260428808228 -30 52 C-33.41703030580686 52 -36.13791245970265 54.33368885374867 -39 56.0625 Z " fill="#000000" transform="translate(481,148)"/>
<path d="M0 0 C3.8846143687659236 1.553845747506358 7.171855572845956 3.1376468820845105 10.76953125 5.203125 C11.893835449218756 5.846850585937489 13.018139648437497 6.490576171874977 14.176513671875 7.15380859375 C15.388590317035622 7.852398192414 16.600583780380163 8.551132131424197 17.8125 9.25 C19.06801208109333 9.971045529617129 20.32362867567926 10.691909104561432 21.579345703125 11.41259765625 C32.514038015968566 17.694881193217384 43.412742573214814 24.038687789385165 54.29052734375 30.4189453125 C56.942961829323735 31.966716598188896 59.60447129912035 33.497528481134395 62.26953125 35.0234375 C62.67159790039062 35.25522705078123 62.67159790039062 35.25522705078123 64.706298828125 36.42822265625 C66.19365320521831 37.28533139468357 67.68420645125954 38.13692208372248 69.178466796875 38.98193359375 C70.81919684429454 39.932252339389436 72.41577842986183 40.958202119637406 74 42 C74 42.65999999999997 74 43.31999999999999 74 44 C72.40885416666669 44.91796875 70.81770833333331 45.8359375 69.2265625 46.75390625 C68.18717529296873 47.353562011718736 67.14778808593752 47.95321777343747 66.076904296875 48.571044921875 C63.74506819372061 49.91631595189341 61.4132043807173 51.26153882364429 59.081298828125 52.606689453125 C53.12763695284647 56.04112981669891 47.17446122032413 59.47640459626115 41.22265625 62.9140625 C34.81732351733625 66.6132312811198 28.409572383904845 70.30818251058389 22 74 C21.478251953124996 74.30067382812501 21.478251953124996 74.30067382812501 18.837890625 75.822265625 C15.872514022710078 77.52982987364396 12.9053470114781 79.23423393102587 9.9375 80.9375 C9.044421386718753 81.45207763671874 8.151342773437506 81.96665527343748 7.231201171875 82.496826171875 C6.82631469726563 82.72873657226563 6.82631469726563 82.72873657226563 4.77734375 83.90234375 C4.068278808593746 84.30960693359373 3.3592138671875063 84.71687011718751 2.628662109375 85.136474609375 C1 86 1 86 0 86 C0 57.620000000000005 0 29.24000000000001 0 0 Z " fill="#000000" transform="translate(91,252)"/>
<path d="M0 0 C0 28.379999999999995 0 56.75999999999999 0 86 C-15.94191919191934 78.0290404040403 -15.94191919191934 78.0290404040403 -21.75 74.5 C-23.181551646401772 73.64459366583378 -24.61390051298065 72.79052065180088 -26.046875 71.9375 C-26.82353515624999 71.4747265625 -27.600195312499977 71.01195312499999 -28.400390625 70.53515625 C-33.57473612508744 67.47953223567339 -38.790902771922276 64.49584934120196 -44 61.5 C-54.03384387848416 55.72322509331718 -64.03667399140352 49.897511913166454 -74 44 C-72.55416201257299 39.66248603771896 -69.28157200534815 38.70637327576799 -65.4375 36.6875 C-63.778600197367325 35.791553408291406 -62.12111882073043 34.892977009511355 -60.46484375 33.9921875 C-59.57651855468748 33.50975585937499 -58.68819335937502 33.02732421874998 -57.77294921875 32.5302734375 C-52.96522180762702 29.87709194314192 -48.235122780598886 27.092573320593488 -43.5 24.3125 C-36.942045682069306 20.46889896927138 -30.379799989143805 16.633745317612465 -23.79296875 12.83984375 C-23.197230529785145 12.496696319580053 -22.60149230957029 12.153548889160163 -21.987701416015625 11.800003051757813 C-19.08907817357607 10.13108751966979 -16.189450603441912 8.463943611675177 -13.2890625 6.798095703125 C-12.248789062500009 6.199567871093734 -11.208515625000018 5.601040039062525 -10.13671875 4.984375 C-9.676322021484339 4.719956054687486 -9.676322021484339 4.719956054687486 -7.346435546875 3.3818359375 C-1.6038869257950523 0 -1.6038869257950523 0 0 0 Z " fill="#000000" transform="translate(421,252)"/>
<path d="M0 0 C25.317765390683064 13.809690213099884 50.19178861536335 28.296921202609553 75 43 C72.49164879686731 45.81784037002336 69.70077062382722 47.45723722763307 66.42578125 49.30078125 C65.29519287109372 49.94120361328123 64.1646044921875 50.58162597656252 62.999755859375 51.241455078125 C62.39904266357422 51.57883697509766 61.79832946777344 51.91621887207032 61.179412841796875 52.263824462890625 C57.996877746006135 54.051506579713816 54.82341992395976 55.855200046263235 51.6484375 57.65625 C51.00335739135744 58.02156326293948 50.35827728271482 58.386876525878904 49.69364929199219 58.76325988769531 C43.57873381569141 62.22926169292697 37.5033965646262 65.76145208495177 31.4375 69.3125 C30.468447265625002 69.87896240234375 29.499394531250005 70.44542480468749 28.5009765625 71.029052734375 C26.6004439403103 72.14005660808141 24.700049958249394 73.25129768473278 22.7998046875 74.36279296875 C18.223701541166747 77.03870399938398 13.645029678129163 79.71010958556008 9.0625 82.375 C8.256755371093732 82.84591064453127 7.4510107421875205 83.31682128906249 6.620849609375 83.802001953125 C1.1145038564841343 87 1.1145038564841343 87 0 87 C0 58.29000000000002 0 29.579999999999984 0 0 Z " fill="#000000" transform="translate(331,321)"/>
<path d="M0 0 C0 28.70999999999998 0 57.420000000000016 0 87 C-25.317765390683064 73.19030978690012 -50.19178861536332 58.70307879739045 -75 44 C-72.4916487968673 41.18215962997664 -69.70077062382724 39.54276277236693 -66.42578125 37.69921875 C-65.29519287109375 37.05879638671877 -64.1646044921875 36.41837402343748 -62.999755859375 35.758544921875 C-62.39904266357422 35.42116302490234 -61.79832946777344 35.08378112792968 -61.179412841796875 34.736175537109375 C-57.996877746006106 32.948493420286184 -54.82341992395976 31.144799953736765 -51.6484375 29.34375 C-51.00335739135741 28.97843673706052 -50.35827728271485 28.613123474121096 -49.69364929199219 28.236740112304688 C-43.57873381569138 24.77073830707303 -37.50339656462623 21.23854791504823 -31.4375 17.6875 C-30.468447265625002 17.121037597656255 -29.499394531250005 16.55457519531251 -28.5009765625 15.970947265625 C-26.60044394031027 14.859943391918591 -24.700049958249394 13.748702315267224 -22.7998046875 12.63720703125 C-18.22370154116672 9.96129600061596 -13.645029678129163 7.289890414439924 -9.0625 4.625 C-8.256755371093732 4.154089355468727 -7.4510107421875205 3.6831787109375114 -6.620849609375 3.197998046875 C-1.1145038564841343 0 -1.1145038564841343 0 0 0 Z " fill="#000000" transform="translate(181,321)"/>
</svg>
