<?xml version="1.0" encoding="UTF-8"?>
<svg xmlns="http://www.w3.org/2000/svg" id="Layer_1" data-name="Layer 1" viewBox="0 0 24 24">
  <path d="M20.1,5.556c-.074-.259-.25-.477-.488-.604L12.473,1.119c-.296-.159-.65-.159-.946,0l-7.139,3.833c-.238,.128-.415,.347-.489,.607-.04,.139-.966,3.451-.966,7.864,0,4.452,.928,7.729,.967,7.867,.094,.327,.348,.584,.674,.682,.141,.042,3.48,1.029,7.426,1.029s7.285-.987,7.425-1.029c.328-.098,.583-.356,.676-.685,.04-.139,.966-3.45,.966-7.864,0-4.451-.928-7.729-.967-7.867Zm-1.789,14.643c-1.063,.265-3.56,.801-6.312,.801s-5.252-.537-6.313-.801c-.249-1.069-.754-3.628-.754-6.776,0-3.27,.555-5.94,.789-6.917l6.278-3.371,6.28,3.372c.233,.967,.787,3.608,.787,6.917,0,3.124-.507,5.699-.756,6.776Z"/>
  <circle cx="12" cy="8.002" r="1"/>
</svg>
